<mxfile modified="2022-05-02T22:16:41.234Z" host="app.diagrams.net" agent="5.0 (Windows NT 10.0; Win64; x64) AppleWebKit/537.36 (KHTML, like Gecko) Chrome/100.0.4896.127 Safari/537.36 Edg/100.0.1185.50" etag="Fc33T7xNa1k_wj_1urb6" compressed="false" version="17.5.0" type="google">
  <diagram name="Security/Confidentiality/In transit/Encrypted Channels" id="WwM6Jxt3viV1MUCZr4a1">
    <mxGraphModel grid="1" page="1" gridSize="10" guides="1" tooltips="1" connect="1" arrows="1" fold="1" pageScale="1" pageWidth="827" pageHeight="1169" math="0" shadow="0">
      <root>
        <mxCell id="ItugANxlPXJBnAAJ_eWA-0" />
        <mxCell id="ItugANxlPXJBnAAJ_eWA-1" parent="ItugANxlPXJBnAAJ_eWA-0" />
        <mxCell id="ItugANxlPXJBnAAJ_eWA-3" value="Database&lt;br&gt;Services" style="verticalLabelPosition=bottom;aspect=fixed;html=1;verticalAlign=top;strokeColor=none;align=center;outlineConnect=0;shape=mxgraph.citrix.database_server;fillColor=none;" vertex="1" parent="ItugANxlPXJBnAAJ_eWA-1">
          <mxGeometry x="391.25" y="600" width="40" height="45" as="geometry" />
        </mxCell>
        <mxCell id="ItugANxlPXJBnAAJ_eWA-4" value="&lt;br&gt;Secure Flags on&lt;br&gt;TCP based connection" style="edgeStyle=none;rounded=0;jumpStyle=arc;orthogonalLoop=1;jettySize=auto;html=1;dashed=1;strokeWidth=2;strokeColor=#009900;" edge="1" parent="ItugANxlPXJBnAAJ_eWA-1" source="ItugANxlPXJBnAAJ_eWA-6" target="ItugANxlPXJBnAAJ_eWA-3">
          <mxGeometry relative="1" as="geometry" />
        </mxCell>
        <mxCell id="ItugANxlPXJBnAAJ_eWA-5" value="HTTPS" style="edgeStyle=none;rounded=0;jumpStyle=arc;orthogonalLoop=1;jettySize=auto;html=1;dashed=1;strokeColor=#009900;strokeWidth=2;" edge="1" parent="ItugANxlPXJBnAAJ_eWA-1" source="ItugANxlPXJBnAAJ_eWA-6" target="ItugANxlPXJBnAAJ_eWA-7">
          <mxGeometry relative="1" as="geometry" />
        </mxCell>
        <mxCell id="ItugANxlPXJBnAAJ_eWA-6" value="Web Server" style="verticalLabelPosition=bottom;aspect=fixed;html=1;verticalAlign=top;strokeColor=none;align=center;outlineConnect=0;shape=mxgraph.citrix.web_server;fillColor=none;" vertex="1" parent="ItugANxlPXJBnAAJ_eWA-1">
          <mxGeometry x="390" y="470" width="42.5" height="50" as="geometry" />
        </mxCell>
        <mxCell id="ItugANxlPXJBnAAJ_eWA-7" value="Secure&lt;br&gt;Key Store" style="verticalLabelPosition=bottom;aspect=fixed;html=1;verticalAlign=top;strokeColor=none;align=center;outlineConnect=0;shape=mxgraph.citrix.license_server;fillColor=none;" vertex="1" parent="ItugANxlPXJBnAAJ_eWA-1">
          <mxGeometry x="120" y="470" width="38.24" height="50" as="geometry" />
        </mxCell>
        <mxCell id="ItugANxlPXJBnAAJ_eWA-9" value="HTTPS" style="edgeStyle=none;rounded=0;jumpStyle=arc;orthogonalLoop=1;jettySize=auto;html=1;dashed=1;strokeColor=#009900;strokeWidth=2;" edge="1" parent="ItugANxlPXJBnAAJ_eWA-1" source="ItugANxlPXJBnAAJ_eWA-10" target="ItugANxlPXJBnAAJ_eWA-19">
          <mxGeometry relative="1" as="geometry" />
        </mxCell>
        <mxCell id="ItugANxlPXJBnAAJ_eWA-10" value="User" style="shape=image;html=1;verticalAlign=top;verticalLabelPosition=bottom;labelBackgroundColor=#ffffff;imageAspect=0;aspect=fixed;image=https://cdn0.iconfinder.com/data/icons/elasto-online-store/26/00-ELASTOFONT-STORE-READY_user-128.png;fillColor=none;" vertex="1" parent="ItugANxlPXJBnAAJ_eWA-1">
          <mxGeometry x="390" y="160" width="40" height="40" as="geometry" />
        </mxCell>
        <mxCell id="ItugANxlPXJBnAAJ_eWA-12" value="unable to &lt;br&gt;listen to&amp;nbsp;&lt;br&gt;traffic" style="edgeStyle=none;rounded=0;jumpStyle=arc;orthogonalLoop=1;jettySize=auto;html=1;dashed=1;strokeColor=#FF0000;" edge="1" parent="ItugANxlPXJBnAAJ_eWA-1" source="ItugANxlPXJBnAAJ_eWA-13">
          <mxGeometry x="-0.2144" y="-11" relative="1" as="geometry">
            <mxPoint x="340" y="260" as="targetPoint" />
            <mxPoint as="offset" />
          </mxGeometry>
        </mxCell>
        <mxCell id="ItugANxlPXJBnAAJ_eWA-13" value="External&lt;br&gt;miscreant" style="shape=image;html=1;verticalAlign=top;verticalLabelPosition=bottom;labelBackgroundColor=#ffffff;imageAspect=0;aspect=fixed;image=https://cdn0.iconfinder.com/data/icons/popo_emotions_the_blacy_png/128/bad_egg.png;fillColor=none;" vertex="1" parent="ItugANxlPXJBnAAJ_eWA-1">
          <mxGeometry x="120.00000000000001" y="240" width="40" height="40" as="geometry" />
        </mxCell>
        <mxCell id="ItugANxlPXJBnAAJ_eWA-14" value="&lt;font style=&quot;font-size: 12px&quot;&gt;&lt;span style=&quot;font-size: 12px&quot;&gt;Diagram: Base System Logical Module -&amp;nbsp;&lt;/span&gt;Security - In Transit - Encrypted Channels&lt;/font&gt;" style="text;strokeColor=none;fillColor=none;html=1;fontSize=24;fontStyle=2;verticalAlign=middle;align=left;shadow=0;glass=0;comic=0;opacity=30;fontColor=#808080;" vertex="1" parent="ItugANxlPXJBnAAJ_eWA-1">
          <mxGeometry x="120" y="695" width="520" height="20" as="geometry" />
        </mxCell>
        <mxCell id="ItugANxlPXJBnAAJ_eWA-15" value="3rd Party &lt;br&gt;API Services" style="verticalLabelPosition=bottom;aspect=fixed;html=1;verticalAlign=top;strokeColor=none;align=center;outlineConnect=0;shape=mxgraph.citrix.license_server;fillColor=none;" vertex="1" parent="ItugANxlPXJBnAAJ_eWA-1">
          <mxGeometry x="590" y="280" width="38.24" height="50" as="geometry" />
        </mxCell>
        <mxCell id="ItugANxlPXJBnAAJ_eWA-16" value="HTTPS" style="edgeStyle=none;rounded=0;jumpStyle=arc;orthogonalLoop=1;jettySize=auto;html=1;dashed=1;strokeColor=#009900;strokeWidth=2;" edge="1" parent="ItugANxlPXJBnAAJ_eWA-1" source="ItugANxlPXJBnAAJ_eWA-6" target="ItugANxlPXJBnAAJ_eWA-15">
          <mxGeometry x="-0.3527" y="-3" relative="1" as="geometry">
            <mxPoint x="400" y="475" as="sourcePoint" />
            <mxPoint x="318.24" y="475" as="targetPoint" />
            <mxPoint as="offset" />
          </mxGeometry>
        </mxCell>
        <mxCell id="ItugANxlPXJBnAAJ_eWA-17" value="Cloud &lt;br&gt;Provider Services" style="verticalLabelPosition=bottom;aspect=fixed;html=1;verticalAlign=top;strokeColor=none;align=center;outlineConnect=0;shape=mxgraph.citrix.license_server;fillColor=none;" vertex="1" parent="ItugANxlPXJBnAAJ_eWA-1">
          <mxGeometry x="590" y="470" width="38.24" height="50" as="geometry" />
        </mxCell>
        <mxCell id="ItugANxlPXJBnAAJ_eWA-18" value="HTTPS" style="edgeStyle=none;rounded=0;jumpStyle=arc;orthogonalLoop=1;jettySize=auto;html=1;dashed=1;strokeColor=#009900;strokeWidth=2;" edge="1" parent="ItugANxlPXJBnAAJ_eWA-1" source="ItugANxlPXJBnAAJ_eWA-6" target="ItugANxlPXJBnAAJ_eWA-17">
          <mxGeometry relative="1" as="geometry">
            <mxPoint x="400" y="505" as="sourcePoint" />
            <mxPoint x="318.24" y="505" as="targetPoint" />
          </mxGeometry>
        </mxCell>
        <mxCell id="ItugANxlPXJBnAAJ_eWA-19" value="Propxy and/or&lt;br&gt;WAF" style="verticalLabelPosition=bottom;aspect=fixed;html=1;verticalAlign=top;strokeColor=none;align=center;outlineConnect=0;shape=mxgraph.citrix.license_server;fillColor=none;" vertex="1" parent="ItugANxlPXJBnAAJ_eWA-1">
          <mxGeometry x="392.13" y="280" width="38.24" height="50" as="geometry" />
        </mxCell>
        <mxCell id="ItugANxlPXJBnAAJ_eWA-20" value="HTTPS" style="edgeStyle=none;rounded=0;jumpStyle=arc;orthogonalLoop=1;jettySize=auto;html=1;dashed=1;exitX=0.467;exitY=0.932;exitDx=0;exitDy=0;exitPerimeter=0;strokeColor=#009900;strokeWidth=2;" edge="1" parent="ItugANxlPXJBnAAJ_eWA-1" source="ItugANxlPXJBnAAJ_eWA-19" target="ItugANxlPXJBnAAJ_eWA-6">
          <mxGeometry x="0.4551" relative="1" as="geometry">
            <mxPoint x="442.5" y="462.11275079597726" as="sourcePoint" />
            <mxPoint x="600" y="366.59549198969023" as="targetPoint" />
            <mxPoint as="offset" />
          </mxGeometry>
        </mxCell>
        <mxCell id="ItugANxlPXJBnAAJ_eWA-24" value="could listen&lt;br&gt;(unless an improbably&amp;nbsp;&lt;br&gt;sophisticated attach,&lt;br&gt;&amp;nbsp;low chance to &lt;i&gt;modify&lt;/i&gt; data)&amp;nbsp;" style="edgeStyle=orthogonalEdgeStyle;rounded=0;orthogonalLoop=1;jettySize=auto;html=1;fillColor=#d5e8d4;strokeColor=#FFB570;strokeWidth=2;" edge="1" parent="ItugANxlPXJBnAAJ_eWA-1" source="ItugANxlPXJBnAAJ_eWA-23">
          <mxGeometry x="-0.1111" y="20" relative="1" as="geometry">
            <mxPoint x="360" y="350" as="targetPoint" />
            <mxPoint as="offset" />
          </mxGeometry>
        </mxCell>
        <mxCell id="ItugANxlPXJBnAAJ_eWA-23" value="Internal&lt;br&gt;Man in the middle&lt;br&gt;miscreant" style="shape=image;html=1;verticalAlign=top;verticalLabelPosition=bottom;labelBackgroundColor=#ffffff;imageAspect=0;aspect=fixed;image=https://cdn0.iconfinder.com/data/icons/popo_emotions_the_blacy_png/128/bad_egg.png;fillColor=none;" vertex="1" parent="ItugANxlPXJBnAAJ_eWA-1">
          <mxGeometry x="120" y="330" width="40" height="40" as="geometry" />
        </mxCell>
        <mxCell id="ItugANxlPXJBnAAJ_eWA-25" value="unable to &lt;br&gt;listen to&amp;nbsp;&lt;br&gt;traffic" style="edgeStyle=none;rounded=0;jumpStyle=arc;orthogonalLoop=1;jettySize=auto;html=1;dashed=1;strokeColor=#FF0000;exitX=1;exitY=0.5;exitDx=0;exitDy=0;" edge="1" parent="ItugANxlPXJBnAAJ_eWA-1" source="ItugANxlPXJBnAAJ_eWA-23">
          <mxGeometry x="0.2" relative="1" as="geometry">
            <mxPoint x="248.24" y="270" as="sourcePoint" />
            <mxPoint x="310" y="490" as="targetPoint" />
            <mxPoint as="offset" />
          </mxGeometry>
        </mxCell>
        <mxCell id="ItugANxlPXJBnAAJ_eWA-26" value="External&lt;br&gt;miscreant" style="shape=image;html=1;verticalAlign=top;verticalLabelPosition=bottom;labelBackgroundColor=#ffffff;imageAspect=0;aspect=fixed;image=https://cdn0.iconfinder.com/data/icons/popo_emotions_the_blacy_png/128/bad_egg.png;fillColor=none;" vertex="1" parent="ItugANxlPXJBnAAJ_eWA-1">
          <mxGeometry x="590" y="380" width="40" height="40" as="geometry" />
        </mxCell>
        <mxCell id="ItugANxlPXJBnAAJ_eWA-27" value="" style="edgeStyle=none;rounded=0;jumpStyle=arc;orthogonalLoop=1;jettySize=auto;html=1;dashed=1;strokeColor=#FF0000;exitX=0;exitY=0.5;exitDx=0;exitDy=0;" edge="1" parent="ItugANxlPXJBnAAJ_eWA-1" source="ItugANxlPXJBnAAJ_eWA-26">
          <mxGeometry x="-0.2144" y="-11" relative="1" as="geometry">
            <mxPoint x="170" y="270" as="sourcePoint" />
            <mxPoint x="550" y="360" as="targetPoint" />
            <mxPoint as="offset" />
          </mxGeometry>
        </mxCell>
        <mxCell id="ItugANxlPXJBnAAJ_eWA-28" value="unable to &lt;br&gt;listen to&amp;nbsp;&lt;br&gt;traffic" style="edgeStyle=none;rounded=0;jumpStyle=arc;orthogonalLoop=1;jettySize=auto;html=1;dashed=1;strokeColor=#FF0000;exitX=0;exitY=0.5;exitDx=0;exitDy=0;" edge="1" parent="ItugANxlPXJBnAAJ_eWA-1" source="ItugANxlPXJBnAAJ_eWA-26">
          <mxGeometry x="-0.3691" y="-15" relative="1" as="geometry">
            <mxPoint x="170" y="270" as="sourcePoint" />
            <mxPoint x="500" y="490" as="targetPoint" />
            <mxPoint x="1" as="offset" />
          </mxGeometry>
        </mxCell>
        <mxCell id="ItugANxlPXJBnAAJ_eWA-29" value="Cache &lt;br&gt;Services" style="verticalLabelPosition=bottom;aspect=fixed;html=1;verticalAlign=top;strokeColor=none;align=center;outlineConnect=0;shape=mxgraph.citrix.database_server;fillColor=none;" vertex="1" parent="ItugANxlPXJBnAAJ_eWA-1">
          <mxGeometry x="118.24000000000001" y="600" width="40" height="45" as="geometry" />
        </mxCell>
        <mxCell id="ItugANxlPXJBnAAJ_eWA-30" value="Encrypted TCP" style="edgeStyle=none;rounded=0;jumpStyle=arc;orthogonalLoop=1;jettySize=auto;html=1;dashed=1;strokeWidth=2;strokeColor=#009900;" edge="1" parent="ItugANxlPXJBnAAJ_eWA-1" source="ItugANxlPXJBnAAJ_eWA-6">
          <mxGeometry relative="1" as="geometry">
            <mxPoint x="421.25" y="530" as="sourcePoint" />
            <mxPoint x="170" y="600" as="targetPoint" />
          </mxGeometry>
        </mxCell>
        <mxCell id="DSFQkUdixdJa8otgkQP3-0" value="" style="ellipse;whiteSpace=wrap;html=1;" vertex="1" parent="ItugANxlPXJBnAAJ_eWA-1">
          <mxGeometry x="350" y="170" width="120" height="80" as="geometry" />
        </mxCell>
      </root>
    </mxGraphModel>
  </diagram>
</mxfile>
